<svg width="799" height="148" viewBox="0 0 799 148" fill="none" xmlns="http://www.w3.org/2000/svg">
<path d="M45.8 0.799988C53.6667 0.799988 59.7333 1.66666 64 3.39999C68.2667 4.99999 71.9333 6.73332 75 8.59998C76.6 9.53332 77.8667 10.2667 78.8 10.8C79.8667 11.2 80.8667 11.4 81.8 11.4C83.1333 11.4 84.0667 10.6667 84.6 9.19999C85.2667 7.73332 85.8 5.53332 86.2 2.59999H90.8C90.6667 5.13332 90.4667 8.19999 90.2 11.8C90.0667 15.2666 89.9333 19.8667 89.8 25.6C89.8 31.3333 89.8 38.8667 89.8 48.2H85.2C84.6667 41.2667 83.0667 34.5333 80.4 28C77.7333 21.4667 73.9333 16.1333 69 12C64.2 7.73332 58.2667 5.59998 51.2 5.59998C44.8 5.59998 39.5333 7.39999 35.4 11C31.2667 14.6 29.2 19.6 29.2 26C29.2 31.3333 30.5333 35.9333 33.2 39.8C35.8667 43.5333 39.7333 47.2 44.8 50.8C50 54.4 56.2667 58.7333 63.6 63.8C70 67.9333 75.7333 72.0667 80.8 76.2C85.8667 80.3333 89.9333 85 93 90.2C96.0667 95.4 97.6 101.6 97.6 108.8C97.6 117.6 95.2667 124.867 90.6 130.6C86.0667 136.333 80.0667 140.667 72.6 143.6C65.1333 146.4 56.9333 147.8 48 147.8C39.7333 147.8 33.1333 147 28.2 145.4C23.2667 143.8 19.1333 142.133 15.8 140.4C12.8667 138.533 10.6 137.6 9 137.6C7.66667 137.6 6.66667 138.333 6 139.8C5.46667 141.267 5 143.467 4.6 146.4H0C0.266667 143.2 0.4 139.467 0.4 135.2C0.533333 130.933 0.599999 125.4 0.599999 118.6C0.733333 111.667 0.8 102.933 0.8 92.4H5.4C5.93333 101.2 7.4 109.467 9.8 117.2C12.3333 124.8 16.1333 130.933 21.2 135.6C26.4 140.267 33.2667 142.6 41.8 142.6C46.4667 142.6 50.6 141.8 54.2 140.2C57.9333 138.467 60.9333 135.933 63.2 132.6C65.4667 129.267 66.6 125.133 66.6 120.2C66.6 114.6 65.2667 109.733 62.6 105.6C60.0667 101.467 56.5333 97.6 52 94C47.6 90.4 42.4667 86.7333 36.6 83C30.3333 78.8667 24.4667 74.7333 19 70.6C13.5333 66.4666 9.13333 61.7333 5.8 56.4C2.6 51.0667 0.999999 44.7333 0.999999 37.4C0.999999 29 3.06667 22.1333 7.2 16.8C11.4667 11.3333 17 7.33332 23.8 4.79999C30.7333 2.13332 38.0667 0.799988 45.8 0.799988Z" fill="black"/>
<path d="M112.597 3.39999C116.064 3.53333 120.597 3.66666 126.197 3.79999C131.797 3.93332 137.397 3.99998 142.997 3.99998C149.397 3.99998 155.597 3.93332 161.597 3.79999C167.597 3.66666 171.864 3.59999 174.397 3.59999C190.93 3.59999 203.264 6.53332 211.397 12.4C219.664 18.2667 223.797 25.8 223.797 35C223.797 39.6667 222.397 44.4 219.597 49.2C216.797 54 212.464 58.2667 206.597 62C200.73 65.7333 193.13 68.4667 183.797 70.2V70.6C196.33 71.5333 206.264 73.8 213.597 77.4C220.93 81 226.197 85.3333 229.397 90.4C232.597 95.4667 234.197 100.733 234.197 106.2C234.197 114.6 231.997 121.667 227.597 127.4C223.197 133.133 216.864 137.533 208.597 140.6C200.33 143.533 190.464 145 178.997 145C175.797 145 171.197 144.933 165.197 144.8C159.197 144.533 151.93 144.4 143.397 144.4C137.53 144.4 131.797 144.467 126.197 144.6C120.597 144.6 116.064 144.733 112.597 145V141C116.864 140.733 120.064 140.2 122.197 139.4C124.33 138.6 125.73 137 126.397 134.6C127.197 132.2 127.597 128.6 127.597 123.8V24.6C127.597 19.6666 127.197 16.0666 126.397 13.8C125.73 11.4 124.264 9.79999 121.997 8.99999C119.864 8.06666 116.73 7.53332 112.597 7.39999V3.39999ZM171.797 7.39999C166.597 7.39999 163.197 8.53333 161.597 10.8C160.13 13.0667 159.397 17.6667 159.397 24.6V123.8C159.397 128.467 159.73 132 160.397 134.4C161.197 136.8 162.53 138.4 164.397 139.2C166.397 140 169.33 140.4 173.197 140.4C182.797 140.4 189.797 137.4 194.197 131.4C198.73 125.267 200.997 116.6 200.997 105.4C200.997 95.1333 198.397 87.2 193.197 81.6C188.13 76 179.664 73.2 167.797 73.2H150.797C150.797 73.2 150.797 72.6666 150.797 71.6C150.797 70.4 150.797 69.8 150.797 69.8H167.997C174.264 69.8 179.064 68.3333 182.397 65.4C185.73 62.3333 188.064 58.3333 189.397 53.4C190.73 48.3333 191.397 42.9333 191.397 37.2C191.397 27.3333 189.864 19.9333 186.797 15C183.73 9.93332 178.73 7.39999 171.797 7.39999Z" fill="black"/>
<path d="M308.186 3.39999V7.39999C303.919 7.53332 300.653 8.06666 298.386 8.99999C296.253 9.79999 294.853 11.4 294.186 13.8C293.519 16.0666 293.186 19.6666 293.186 24.6V123.8C293.186 128.6 293.519 132.2 294.186 134.6C294.986 137 296.453 138.6 298.586 139.4C300.719 140.2 303.919 140.733 308.186 141V145C304.586 144.733 300.053 144.6 294.586 144.6C289.119 144.467 283.586 144.4 277.986 144.4C271.453 144.4 265.386 144.467 259.786 144.6C254.319 144.6 249.853 144.733 246.386 145V141C250.653 140.733 253.853 140.2 255.986 139.4C258.119 138.6 259.519 137 260.186 134.6C260.986 132.2 261.386 128.6 261.386 123.8V24.6C261.386 19.6666 260.986 16.0666 260.186 13.8C259.519 11.4 258.053 9.79999 255.786 8.99999C253.653 8.06666 250.519 7.53332 246.386 7.39999V3.39999C249.853 3.53333 254.319 3.66666 259.786 3.79999C265.386 3.93332 271.453 3.99998 277.986 3.99998C283.586 3.99998 289.119 3.93332 294.586 3.79999C300.053 3.66666 304.586 3.53333 308.186 3.39999Z" fill="black"/>
<path d="M431.261 3.39999V7.39999C426.728 7.53332 423.261 8.06666 420.861 8.99999C418.594 9.79999 417.061 11.4 416.261 13.8C415.461 16.0666 415.061 19.6666 415.061 24.6V126.2C415.061 130.333 415.328 133.4 415.861 135.4C416.528 137.4 417.728 138.733 419.461 139.4C421.328 140.067 424.061 140.4 427.661 140.4H437.461C441.994 140.4 446.261 139.333 450.261 137.2C454.261 135.067 457.861 132.067 461.061 128.2C464.261 124.2 466.928 119.467 469.061 114C471.194 108.533 472.794 102.467 473.861 95.8H478.461C478.061 100.333 477.861 106.2 477.861 113.4C477.861 116.467 477.928 120.933 478.061 126.8C478.194 132.667 478.594 138.733 479.261 145C472.461 144.733 464.794 144.6 456.261 144.6C447.728 144.467 440.128 144.4 433.461 144.4C430.128 144.4 425.861 144.4 420.661 144.4C415.461 144.4 409.861 144.467 403.861 144.6C397.861 144.6 391.794 144.667 385.661 144.8C379.528 144.8 373.728 144.867 368.261 145V141C372.528 140.733 375.728 140.2 377.861 139.4C379.994 138.6 381.394 137 382.061 134.6C382.861 132.2 383.261 128.6 383.261 123.8V24.6C383.261 19.6666 382.861 16.0666 382.061 13.8C381.394 11.4 379.928 9.79999 377.661 8.99999C375.528 8.06666 372.394 7.53332 368.261 7.39999V3.39999C371.594 3.53333 376.061 3.66666 381.661 3.79999C387.394 3.93332 393.461 3.99998 399.861 3.99998C405.728 3.99998 411.461 3.93332 417.061 3.79999C422.794 3.66666 427.528 3.53333 431.261 3.39999Z" fill="black"/>
<path d="M557.327 2.99998L605.927 128.2C607.793 133 609.86 136.333 612.127 138.2C614.527 139.933 616.66 140.867 618.527 141V145C614.527 144.733 609.793 144.6 604.327 144.6C598.993 144.467 593.593 144.4 588.127 144.4C582.607 144.4 575.928 143.799 571.327 143C467.5 68.5 520.138 101.577 467.5 68.5C468 67.5 468.5 66 469.061 65C477.5 70 552 128.5 585 137C570.5 130.5 585 137 570.5 130.5C570.5 129 570.614 127.482 569.327 124.2L535.327 31.2L538.927 26L508.527 105.2C505.593 112.533 503.793 118.533 503.127 123.2C502.593 127.867 502.927 131.467 504.127 134C505.46 136.533 507.527 138.333 510.327 139.4C513.26 140.333 516.727 140.867 520.727 141V145C516.327 144.733 512.127 144.6 508.127 144.6C504.127 144.467 500.06 144.4 495.927 144.4C492.993 144.4 490.193 144.467 487.527 144.6C484.993 144.6 482.727 144.733 480.727 145V141C483.527 140.467 486.393 138.667 489.327 135.6C492.26 132.533 495.127 127.333 497.927 120L543.527 2.99998C545.66 3.13332 547.927 3.19998 550.327 3.19998C552.86 3.19998 555.193 3.13332 557.327 2.99998ZM571.327 87.4V91.4H511.727L513.727 87.4H571.327Z" fill="black"/>
<path d="M798.448 3.39999V7.39999C795.515 8.46666 792.448 10.8 789.248 14.4C786.048 17.8666 783.248 23.4667 780.848 31.2L745.648 145.4C744.582 145.267 743.448 145.2 742.248 145.2C741.048 145.2 739.848 145.2 738.648 145.2C737.448 145.2 736.248 145.2 735.048 145.2C733.848 145.2 732.715 145.267 731.648 145.4L689.648 18.2C688.315 14.0667 686.648 11.2667 684.648 9.79998C682.782 8.33332 680.782 7.53332 678.648 7.39999V3.39999C682.382 3.53333 686.782 3.66666 691.848 3.79999C697.048 3.93332 702.182 3.99998 707.248 3.99998C713.115 3.99998 718.582 3.93332 723.648 3.79999C728.848 3.66666 732.982 3.53333 736.048 3.39999V7.39999C732.048 7.53332 728.848 7.99998 726.448 8.79998C724.182 9.59999 722.848 11.1333 722.448 13.4C722.182 15.6666 722.848 19.2667 724.448 24.2L752.848 111L748.248 119.2L770.848 47.4C774.048 37.2667 775.582 29.3333 775.448 23.6C775.315 17.8667 773.782 13.8 770.848 11.4C767.915 8.86665 763.715 7.53332 758.248 7.39999V3.39999C762.782 3.53333 767.048 3.66666 771.048 3.79999C775.048 3.93332 779.048 3.99998 783.048 3.99998C786.115 3.99998 788.915 3.93332 791.448 3.79999C794.115 3.66666 796.448 3.53333 798.448 3.39999ZM655.648 3.39999V7.39999C652.982 7.79998 651.115 8.79998 650.048 10.4C648.982 11.8666 648.515 13.8667 648.648 16.4C648.915 18.8 649.515 21.4 650.448 24.2L681.048 113L675.648 120.2L701.248 45.4L704.048 50.8L672.648 145.4C671.582 145.267 670.448 145.2 669.248 145.2C668.048 145.2 666.848 145.2 665.648 145.2C664.448 145.2 663.248 145.2 662.048 145.2C660.848 145.2 659.715 145.267 658.648 145.4L613.848 20.2C612.115 15.2667 610.048 11.9333 607.648 10.2C605.382 8.46665 603.248 7.53332 601.248 7.39999V3.39999C605.248 3.53333 609.982 3.66666 615.448 3.79999C620.915 3.93332 626.115 3.99998 631.048 3.99998C636.382 3.99998 641.115 3.93332 645.248 3.79999C649.515 3.66666 652.982 3.53333 655.648 3.39999Z" fill="black"/>
<path d="M445.183 67.5762L463.53 43.8403L475.398 53.0137L457.051 76.7496L445.183 67.5762Z" fill="black"/>
<path d="M441.819 71.9278C440.946 71.2523 440.785 69.9962 441.46 69.1223V69.1223C442.136 68.2483 443.392 68.0875 444.266 68.763L455.342 77.3249C456.216 78.0004 456.377 79.2564 455.702 80.1304V80.1304C455.026 81.0043 453.77 81.1652 452.896 80.4896L441.819 71.9278Z" fill="black"/>
<path d="M464.447 42.6535C463.573 41.978 463.412 40.7219 464.088 39.848V39.848C464.763 38.974 466.019 38.8132 466.893 39.4887L477.97 48.0505C478.844 48.726 479.005 49.9821 478.329 50.8561V50.8561C477.654 51.73 476.398 51.8908 475.524 51.2153L464.447 42.6535Z" fill="black"/>
<rect x="460.613" y="65.6002" width="8" height="8" rx="1" transform="rotate(-52.2976 460.613 65.6002)" fill="black"/>
<path d="M464.25 47.4508C464.419 47.2325 464.733 47.1925 464.952 47.3616V47.3616C465.17 47.5307 465.21 47.8447 465.041 48.063L449.99 67.5027C449.821 67.721 449.507 67.761 449.288 67.5919V67.5919C449.07 67.4229 449.03 67.1088 449.199 66.8905L464.25 47.4508Z" fill="white"/>
</svg>
