<svg id="visual" viewBox="0 0 900 600" width="900" height="600" xmlns="http://www.w3.org/2000/svg" xmlns:xlink="http://www.w3.org/1999/xlink" version="1.1"><rect x="0" y="0" width="900" height="600" fill="#76abf8"></rect><g transform="translate(415.73730809584436 279.1649692065144)"><path d="M87.6 -140.6C113.5 -119.6 134.5 -95.3 167.4 -64.4C200.4 -33.5 245.2 4.1 256.2 47.9C267.2 91.8 244.3 141.8 203.3 160C162.4 178.1 103.3 164.4 52.3 180.4C1.3 196.4 -41.6 242.1 -68.6 234C-95.6 226 -106.8 164.1 -117.4 119.6C-128.1 75.2 -138.3 48.3 -154.7 14.8C-171.2 -18.7 -193.8 -58.8 -190 -94.9C-186.1 -131 -155.8 -163.1 -119.7 -179.4C-83.6 -195.8 -41.8 -196.4 -5.5 -187.8C30.8 -179.3 61.6 -161.6 87.6 -140.6" fill="#ffffff"></path></g></svg>