<svg id="eRvVMfO9a1Y1" xmlns="http://www.w3.org/2000/svg" xmlns:xlink="http://www.w3.org/1999/xlink" viewBox="0 0 1920 1080" shape-rendering="geometricPrecision" text-rendering="geometricPrecision"><style><![CDATA[#eRvVMfO9a1Y6_to {animation: eRvVMfO9a1Y6_to__to 6000ms linear infinite normal forwards}@keyframes eRvVMfO9a1Y6_to__to { 0% {transform: translate(1790px,163px);animation-timing-function: cubic-bezier(0.57,0,0.34,0.985)} 50% {transform: translate(1756.608696px,194.006211px);animation-timing-function: cubic-bezier(0.57,0,0.34,0.985)} 100% {transform: translate(1790px,163px)}} #eRvVMfO9a1Y8_to {animation: eRvVMfO9a1Y8_to__to 6000ms linear infinite normal forwards}@keyframes eRvVMfO9a1Y8_to__to { 0% {transform: translate(422px,243.614907px);animation-timing-function: cubic-bezier(0.52,0.01,0.435,1.005)} 50% {transform: translate(508.006211px,348px);animation-timing-function: cubic-bezier(0.52,0.01,0.435,1.005)} 100% {transform: translate(422px,243.614907px)}} #eRvVMfO9a1Y10_to {animation: eRvVMfO9a1Y10_to__to 6000ms linear infinite normal forwards}@keyframes eRvVMfO9a1Y10_to__to { 0% {transform: translate(464px,709px);animation-timing-function: cubic-bezier(0.55,0.01,0.255,0.995)} 50% {transform: translate(368.660339px,736px);animation-timing-function: cubic-bezier(0.55,0.01,0.255,0.995)} 100% {transform: translate(464px,709px)}}]]></style><g transform="translate(2.385094 0)" clip-path="url(#eRvVMfO9a1Y14)"><g><g><path d="M44,232c96.098,0,174-77.902,174-174c0-96.0975-77.902-174-174-174-96.0975,0-174,77.9025-174,174c0,96.098,77.9025,174,174,174Z" fill="#76c5ff" fill-opacity="0.3"/><g id="eRvVMfO9a1Y6_to" transform="translate(1790,163)"><path d="M1790,240c42.53,0,77-34.474,77-77s-34.47-77-77-77-77,34.474-77,77s34.47,77,77,77Z" transform="translate(-1790,-163)" fill="#76c5ff" fill-opacity="0.3"/></g><path d="M848,736c70.14,0,127-56.86,127-127s-56.86-127-127-127-127,56.86-127,127s56.86,127,127,127Z" fill="#76c5ff" fill-opacity="0.3"/><g id="eRvVMfO9a1Y8_to" transform="translate(422,243.614907)"><path d="M422,380c74.006,0,134-59.994,134-134s-59.994-134-134-134-134,59.994-134,134s59.994,134,134,134Z" transform="translate(-422,-246)" fill="#76c5ff" fill-opacity="0.3"/></g><path d="M1560,912c43.63,0,79-35.37,79-79s-35.37-79-79-79-79,35.37-79,79s35.37,79,79,79Z" fill="#76c5ff" fill-opacity="0.3"/><g id="eRvVMfO9a1Y10_to" transform="translate(464,709)"><path d="M464,830c66.826,0,121-54.174,121-121s-54.174-121-121-121-121,54.174-121,121s54.174,121,121,121Z" transform="translate(-464,-709)" fill="#76c5ff" fill-opacity="0.3"/></g><path d="M1134,312c86.16,0,156-69.844,156-156c0-86.1564-69.84-156-156-156s-156,69.8436-156,156c0,86.156,69.84,156,156,156Z" fill="#76c5ff" fill-opacity="0.3"/><path d="M995,1011c46.39,0,84-37.608,84-84s-37.61-84-84-84c-46.392,0-84,37.608-84,84s37.608,84,84,84Z" fill="#76c5ff" fill-opacity="0.3"/><path d="M1913,950c61.86,0,112-50.144,112-112s-50.14-112-112-112-112,50.144-112,112s50.14,112,112,112Z" fill="#76c5ff" fill-opacity="0.3"/></g></g><clipPath id="eRvVMfO9a1Y14"><rect width="1920" height="1080" rx="0" ry="0" fill="#fff"/></clipPath></g></svg>